<?xml version="1.0" encoding="UTF-8"?>
<svg width="800px" height="800px" fill="#000000" version="1.1" viewBox="0 0 512 512" xml:space="preserve" xmlns="http://www.w3.org/2000/svg">

	
		<path d="m123.72 311.34h-79.336c-5.77 0-10.449 4.678-10.449 10.449s4.679 10.449 10.449 10.449h79.336c5.771 0 10.449-4.678 10.449-10.449s-4.679-10.449-10.449-10.449z"/>
	


	
		<path d="m108.88 349.97h-0.158c-5.77 0-10.449 4.678-10.449 10.449s4.679 10.449 10.449 10.449h0.158c5.771 0 10.449-4.678 10.449-10.449s-4.679-10.449-10.449-10.449z"/>
	


	
		<path d="m74.587 349.98h-30.492c-5.77 0-10.449 4.678-10.449 10.449s4.679 10.449 10.449 10.449h30.492c5.77 0 10.449-4.678 10.449-10.449s-4.679-10.449-10.449-10.449z"/>
	


	
		<path d="m296.88 395.23h-0.157c-5.77 0-10.449 4.678-10.449 10.449s4.679 10.449 10.449 10.449h0.157c5.77 0 10.449-4.678 10.449-10.449s-4.679-10.449-10.449-10.449z"/>
	


	
		<path d="m296.88 436.68h-0.157c-5.77 0-10.449 4.678-10.449 10.449s4.679 10.449 10.449 10.449h0.157c5.77 0 10.449-4.678 10.449-10.449s-4.679-10.449-10.449-10.449z"/>
	


	
		<path d="m400.69 425.36h0.01-0.01z"/>
	


	
		<path d="m400.48 472.67h0.01-0.01z"/>
	


	
		<path d="m10.586 481.61h-0.137c-5.77 0-10.449 4.678-10.449 10.449s4.679 10.449 10.449 10.449h0.137c5.77 0 10.449-4.678 10.449-10.449s-4.679-10.449-10.449-10.449z"/>
	


	
		<path d="m501.55 481.61h-0.137c-5.77 0-10.449 4.678-10.449 10.449s4.679 10.449 10.449 10.449h0.137c5.77 0 10.449-4.678 10.449-10.449s-4.679-10.449-10.449-10.449z"/>
	


	
		<path d="m294.11 202.62c-6.44 0-11.68 5.239-11.68 11.68 0 6.44 5.24 11.679 11.68 11.679s11.678-5.239 11.679-11.679c0-6.441-5.239-11.68-11.679-11.68z"/>
	


	
		<path d="m217.89 202.62c-6.44 0-11.679 5.239-11.679 11.68 0 6.44 5.239 11.679 11.679 11.679s11.68-5.239 11.68-11.679c-1e-3 -6.441-5.241-11.68-11.68-11.68z"/>
	


	
		<path d="m266.26 251.85h-20.422c-5.77 0-10.449 4.678-10.449 10.449 0 11.391 9.268 20.66 20.66 20.66s20.659-9.267 20.66-20.66c0-5.771-4.679-10.449-10.449-10.449z"/>
	


	
		<path d="m448.35 269.52c-34.59 0-62.733 28.142-62.733 62.734 0 31.365 23.138 57.427 53.242 62.015v58.43c0 5.771 4.679 10.449 10.449 10.449s10.449-4.678 10.449-10.449v-58.77c29.161-5.382 51.326-30.98 51.326-61.674 1e-3 -34.593-28.142-62.735-62.733-62.735zm0 104.57c-23.067 0-41.835-18.766-41.835-41.835 0-23.068 18.767-41.836 41.835-41.836s41.836 18.767 41.836 41.836-18.768 41.835-41.836 41.835z"/>
	


	
		<path d="m449.31 299.26c-5.77 0-10.449 4.678-10.449 10.449v22.549c0 5.771 4.679 10.449 10.449 10.449s10.449-4.678 10.449-10.449v-22.549c0-5.771-4.679-10.449-10.449-10.449z"/>
	


	
		<path d="m449.31 347.18c-5.77 0-10.449 4.678-10.449 10.449v0.204c0 5.771 4.679 10.449 10.449 10.449s10.449-4.678 10.449-10.449v-0.204c0-5.771-4.679-10.449-10.449-10.449z"/>
	


	
		<path d="m369.59 436.68h-39.203c-5.77 0-10.449 4.678-10.449 10.449s4.679 10.449 10.449 10.449h39.203c5.77 0 10.449-4.678 10.449-10.449s-4.679-10.449-10.449-10.449z"/>
	


	
		<path d="m467.66 481.61h-58.022v-70.651c0-20.368-12.292-39.713-29.89-47.047l-46.729-19.47 62.348-52.433c2.24-1.884 3.588-4.622 3.715-7.547 0.125-2.925-0.981-5.769-3.051-7.839l-32.516-32.516c11.978-5.22 20.38-17.159 20.38-31.038 0-15.022-9.836-27.791-23.405-32.205v-10.303c12.109-3.83 22.003-7.735 29.337-10.946 14.059-6.156 59.93-28.226 59.93-53.747 0-19.627-24.061-23.906-31.968-25.313-12.699-2.258-29.802-3.326-56.375-3.484l-13.289-45.64c-2.443-8.391-8.38-15.334-16.289-19.052-7.91-3.715-17.043-3.854-25.057-0.38l-50.735 21.984-50.725-21.984c-8.019-3.474-17.154-3.332-25.065 0.383-7.911 3.718-13.85 10.661-16.293 19.052l-13.281 45.638c-26.675 0.159-43.81 1.234-56.536 3.516-21.102 3.785-31.801 12.29-31.801 25.281 0 25.523 45.871 47.592 59.93 53.747 7.313 3.202 17.171 7.095 29.235 10.914v10.334c-13.569 4.414-23.405 17.182-23.405 32.205 0 3.312 0.503 6.505 1.394 9.533h-4.002v-1.037c0-5.771-4.679-10.449-10.449-10.449s-10.449 4.678-10.449 10.449v1.037h-18.328v-1.037c0-5.771-4.679-10.449-10.449-10.449s-10.449 4.678-10.449 10.449v1.037h-18.33v-0.96c0-5.771-4.679-10.449-10.449-10.449s-10.449 4.678-10.449 10.449v0.96h-15.63c-5.77 0-10.449 4.678-10.449 10.449v214.24c0 5.771 4.679 10.449 10.449 10.449h91.845v23.865h-57.92c-5.77 0-10.449 4.678-10.449 10.449s4.679 10.449 10.449 10.449h423.22c5.77 0 10.449-4.678 10.449-10.449s-4.676-10.447-10.447-10.447zm-283.63-444.33c0.777-2.67 2.593-4.793 5.116-5.978 2.52-1.184 5.315-1.229 7.871-0.121l54.778 23.74c1.312 0.57 2.726 0.863 4.158 0.863h0.189c1.428 0 2.843-0.294 4.155-0.861l54.795-23.743c2.552-1.106 5.343-1.064 7.859 0.12 2.519 1.184 4.334 3.307 5.114 5.98l18.894 64.887c-29.485 9.047-60.017 13.628-90.904 13.628-15.546 0-31.242-1.19-46.656-3.535-14.932-2.275-29.773-5.662-44.247-10.096l18.878-64.884zm-53.371 103.2c-35.336-15.473-46.879-30.208-47.397-34.332 0.797-0.804 4.727-3.81 20.221-5.854 9.989-1.317 22.956-2.039 41.103-2.262l-2.335 8.026c-1.56 5.36 1.37 11.001 6.652 12.807 18.614 6.363 37.908 11.092 57.348 14.054 16.452 2.504 33.207 3.773 49.802 3.773 36.518 0 72.568-5.998 107.15-17.828 5.283-1.807 8.211-7.447 6.651-12.806l-2.337-8.027c18.064 0.223 30.987 0.938 40.948 2.241 15.631 2.044 19.579 5.07 20.378 5.874-0.51 4.115-12.048 18.854-47.398 34.333-21.441 9.388-66.241 25.138-125.39 25.138s-103.95-15.749-125.39-25.137zm31.301 59.641c5.77 0 10.449-4.678 10.449-10.449v-13.268c23.03 5.675 51.345 10.113 83.643 10.113 32.25 0 60.53-4.424 83.541-10.087v13.243c0 5.771 4.679 10.449 10.449 10.449 7.144 0 12.956 5.813 12.956 12.956s-5.813 12.956-12.956 12.956c-5.77 0-10.449 4.678-10.449 10.449v17.052c-0.949 11.05-6.443 21.176-14.421 26.577l-56.099 32.167c-0.19 0.11-0.377 0.225-0.56 0.346-7.835 5.173-17.185 5.173-25.02 0-0.187-0.123-0.377-0.241-0.573-0.352l-56.265-32.164c-7.984-5.406-13.285-15.293-14.246-26.572v-17.054c0-5.771-4.679-10.449-10.449-10.449-7.144 0-12.956-5.813-12.956-12.956 0-7.145 5.812-12.957 12.956-12.957zm-54.57 188.5h-63.653c-5.77 0-10.449 4.678-10.449 10.449s4.679 10.449 10.449 10.449h58.651c-0.014 0.482-0.027 0.963-0.027 1.447v25.887h-81.396v-193.34h5.181v0.95c0 5.771 4.679 10.449 10.449 10.449s10.449-4.678 10.449-10.449v-0.95h18.329v0.874c0 5.771 4.679 10.449 10.449 10.449s10.449-4.678 10.449-10.449v-0.874h18.33v0.874c0 5.771 4.679 10.449 10.449 10.449s10.449-4.678 10.449-10.449v-0.874h21.674c0.516 0.252 1.034 0.497 1.564 0.723l-28.467 28.469h-75.88c-5.77 0-10.449 4.678-10.449 10.449s4.679 10.449 10.449 10.449h74.491l60.346 50.749-46.974 19.573c-10.854 4.522-19.684 13.618-24.863 24.7zm138.21 92.996h-122.34v-70.651c0-11.777 7.322-23.71 17.031-27.756l56.939-23.724 48.374 40.681v81.45zm-106.43-198.26 14.969-14.969c3.785 12.244 11.249 22.726 21.256 29.333 0.187 0.124 0.377 0.241 0.573 0.352l56.307 32.189c7.335 4.764 15.53 7.145 23.728 7.145 8.199 0 16.398-2.383 23.734-7.149l56.142-32.192c0.19-0.11 0.377-0.225 0.56-0.346 10.158-6.708 17.717-17.299 21.498-29.627l15.263 15.263-117.01 98.406-117.02-98.405zm249.57 198.26h-122.24v-81.227l48.518-40.801 56.694 23.622c9.708 4.045 17.03 15.978 17.03 27.756v70.65z"/>
	

</svg>
